HIERARCHY
ROOT hip
{
	OFFSET 0.000000 0.000000 0.000000 
	CHANNELS 6 Xposition Yposition Zposition Xrotation Zrotation Yrotation
	JOINT abdomen
	{
		OFFSET 0.000000 3.402643 0.000000 
		CHANNELS 3 Xrotation Zrotation Yrotation
		JOINT chest
		{
			OFFSET 0.000000 8.438565 -0.680529 
			CHANNELS 3 Xrotation Zrotation Yrotation
			JOINT neck
			{
				OFFSET 0.000000 10.207942 -0.272212 
				CHANNELS 3 Xrotation Zrotation Yrotation
				JOINT head
				{
					OFFSET 0.000000 3.130431 0.000000 
					CHANNELS 3 Xrotation Zrotation Yrotation
					End Site
					{
						OFFSET 0.000000 3.130435 0.000000 
					}
				}
			}
			JOINT lCollar
			{
				OFFSET 3.470700 6.669187 -0.816635 
				CHANNELS 3 Yrotation Zrotation Xrotation
				JOINT lShldr
				{
					OFFSET 3.198488 0.000000 0.000000 
					CHANNELS 3 Zrotation Yrotation Xrotation
					JOINT lForeArm
					{
						OFFSET 10.139888 0.000000 0.000000 
						CHANNELS 3 Yrotation Zrotation Xrotation
						JOINT lHand
						{
							OFFSET 8.370511 0.000000 0.000000 
							CHANNELS 3 Zrotation Yrotation Xrotation
							End Site
							{
								OFFSET 4.083176 0.000000 0.000000 
							}
						}
					}
				}
			}
			JOINT rCollar
			{
				OFFSET -3.470700 6.669187 -0.816635 
				CHANNELS 3 Yrotation Zrotation Xrotation
				JOINT rShldr
				{
					OFFSET -3.198488 0.000000 0.000000 
					CHANNELS 3 Zrotation Yrotation Xrotation
					JOINT rForeArm
					{
						OFFSET -10.139888 0.000000 0.000000 
						CHANNELS 3 Yrotation Zrotation Xrotation
						JOINT rHand
						{
							OFFSET -8.370511 0.000000 0.000000 
							CHANNELS 3 Zrotation Yrotation Xrotation
							End Site
							{
								OFFSET -4.083176 0.000000 0.000000 
							}
						}
					}
				}
			}
		}
	}
	JOINT lThigh
	{
		OFFSET 5.308129 -1.633274 1.361059 
		CHANNELS 3 Xrotation Zrotation Yrotation
		JOINT lShin
		{
			OFFSET -2.041588 -20.007561 0.000000 
			CHANNELS 3 Xrotation Zrotation Yrotation
			JOINT lFoot
			{
				OFFSET 0.000000 -19.190928 -1.224953 
				CHANNELS 3 Xrotation Yrotation Zrotation
				End Site
				{
					OFFSET 0.000000 -2.449906 4.627600 
				}
			}
		}
	}
	JOINT rThigh
	{
		OFFSET -5.308129 -1.633274 1.361059 
		CHANNELS 3 Xrotation Zrotation Yrotation
		JOINT rShin
		{
			OFFSET 2.041588 -20.007561 0.000000 
			CHANNELS 3 Xrotation Zrotation Yrotation
			JOINT rFoot
			{
				OFFSET 0.000000 -19.190928 -1.224953 
				CHANNELS 3 Xrotation Yrotation Zrotation
				End Site
				{
					OFFSET 0.000000 -2.449906 4.627600 
				}
			}
		}
	}
}
MOTION
Frames: 19
Frame Time: 0.033333
1.389440 31.349482 1.389440 0.000000 0.000000 3.359375 25.538179 5.230464 -12.486665 -3.251876 -0.167753 7.516016 23.447193 -2.067792 -3.149242 10.524219 0.508720 -0.030344 -4.599198 -6.898929 1.810984 -48.628117 -46.614506 13.785878 -80.619934 -3.140074 1.232783 24.236240 4.988566 -55.070423 0.744154 3.380540 1.968939 86.095314 46.342869 13.924216 71.707855 3.055482 1.460027 71.041824 45.244297 107.541992 -58.369904 10.025836 10.658044 79.237450 2.217759 -4.677999 -20.716915 4.548645 3.432077 -31.481352 -24.203106 -24.989355 100.490349 -3.729841 4.338715 -50.349129 -5.168703 4.585359 
1.272842 30.250151 1.272843 0.000000 0.000000 7.607422 25.906811 3.919476 -8.184193 -1.112653 -0.451119 7.496766 30.096317 -2.890085 -4.345066 10.524219 0.508720 -0.030344 -4.409132 -8.687963 8.347440 -47.398571 -52.782307 19.876997 -85.522415 -3.168575 1.091272 22.068758 -0.413689 -48.787693 -0.271545 2.133439 8.578837 83.412758 47.132893 20.332430 81.021805 3.144325 1.215907 62.103024 48.597576 99.158394 -60.296288 9.772508 14.445592 82.142326 2.432645 -4.653358 -22.273241 3.022714 7.238686 -33.172260 -28.912317 -25.480047 104.024734 -3.983341 4.229904 -51.012009 -1.728438 6.021016 
1.333918 28.884245 1.333918 0.000000 0.000000 11.289063 26.159332 2.567465 -3.774273 1.105391 -0.735007 7.471373 37.026272 -3.481785 -5.764630 10.524219 0.508720 -0.030344 -4.126001 -10.473569 15.179282 -44.359512 -58.169510 25.241972 -90.576614 -3.188424 0.960484 19.276337 -5.575047 -42.076836 -1.299728 0.760779 15.413575 79.858856 48.096546 25.856840 90.524666 3.190894 0.956801 51.636600 50.983025 89.385727 -62.099678 9.707430 18.089155 84.715805 2.599691 -4.656929 -23.343323 1.579044 10.884985 -34.812939 -33.354763 -25.882675 107.278206 -4.179189 4.120214 -51.508118 1.635526 7.178967 
1.800309 27.773895 1.800309 0.000000 0.000000 12.968750 26.324930 1.248383 0.379171 3.167841 -0.992198 7.444345 43.458828 -3.834602 -7.240038 10.524219 0.508720 -0.030344 -3.775040 -12.130026 21.541641 -39.772552 -61.864758 29.495693 -95.668251 -3.199977 0.814107 15.838584 -10.395857 -34.980160 -2.202788 -0.654735 21.711210 75.680351 48.800758 30.258352 99.652763 3.194823 0.694809 40.931366 52.124775 79.064224 -63.286182 9.782267 21.183754 85.817131 2.695986 -4.638299 -22.982151 0.379847 13.824440 -36.199448 -36.741680 -26.437851 109.359825 -4.316014 4.034970 -50.991467 4.466643 7.583615 
3.044022 27.951563 3.044022 0.000000 0.000000 11.855470 26.432753 0.062672 3.926154 4.810738 -1.208686 7.414689 48.607388 -4.027004 -8.595565 10.524219 0.508720 -0.030344 -3.441227 -13.554277 25.000000 -35.160675 -63.303013 33.480850 -100.682678 -3.191614 0.673751 11.786065 -14.717330 -27.584553 -2.888686 -1.986369 25.000000 71.325859 48.794277 33.657852 107.853043 3.167357 0.472172 31.753351 52.159515 69.512840 -63.436195 10.058058 23.258039 84.373741 2.597865 -4.658804 -20.175617 -0.491794 15.567768 -37.011234 -38.288616 -27.449503 109.359245 -4.306133 4.057812 -48.556503 6.274324 6.876290 
1.311707 28.656685 1.311707 0.000000 0.000000 11.650391 26.539564 -0.906710 6.518586 5.789002 -1.338734 7.393156 51.718990 -4.254174 -9.676030 10.524219 0.508720 -0.030344 -3.208892 -14.701769 25.000000 -33.207272 -62.292583 39.151356 -105.506302 -3.174165 0.532790 7.194787 -18.454466 -20.025705 -3.271799 -3.121125 25.000000 67.424500 47.654537 36.400139 114.547920 3.121180 0.299169 25.529213 51.658203 61.739235 -62.318905 10.298937 24.066730 79.393547 2.227629 -4.674848 -14.005174 -0.959521 15.835057 -37.441059 -37.546986 -29.023329 106.760635 -4.149924 4.128296 -43.326496 6.684727 4.699681 
-0.420601 30.777607 -0.420601 0.000000 0.000000 11.035156 26.722498 -1.575744 7.785773 5.847915 -1.364291 7.388519 52.021896 -4.704326 -10.305573 10.524219 0.508720 -0.030344 -3.185560 -15.486310 25.000000 -35.768829 -58.713379 47.840179 -110.024864 -3.150570 0.423361 2.172763 -21.542591 -12.445087 -3.292348 -3.905976 25.000000 64.686348 44.972176 38.919586 119.186188 3.071989 0.168115 23.248569 51.321201 56.299549 -60.246510 10.522152 23.889334 71.607361 1.672763 -4.646860 -5.215346 -1.108600 15.020064 -37.723610 -35.014977 -30.979982 102.120888 -3.847082 4.284615 -35.907478 5.780352 1.481430 
-2.169559 33.992355 -2.169573 -0.029297 -0.019531 9.980478 26.966503 -2.077134 8.103105 5.202355 -1.292686 7.344468 50.171158 -5.465357 -10.586530 10.524219 0.508720 -0.030344 -3.309632 -16.074995 25.000000 -40.182022 -53.225105 57.130199 -114.125076 -3.120226 0.301467 -3.088610 -23.973728 -5.105967 -3.016423 -4.497768 25.000000 63.537754 41.778366 40.457005 121.295731 3.052145 0.119526 25.940935 51.817558 53.396397 -57.537144 10.907085 23.171688 62.487541 1.029892 -4.522013 4.863017 -1.344096 13.503376 -37.714355 -31.384781 -33.174458 96.302322 -3.466282 4.442613 -27.686661 3.880624 -2.045153 
-3.929630 37.673527 -3.929630 -0.068359 -0.058594 8.486398 27.226414 -2.572087 8.125887 4.253573 -1.169886 7.202819 47.381256 -6.442437 -10.740474 10.524219 0.508720 -0.030344 -3.511838 -16.666195 24.974674 -43.724003 -47.041958 64.784996 -117.668030 -3.083930 0.203708 -8.409013 -25.815742 1.743902 -2.621315 -5.118324 25.000000 63.716068 39.086967 40.287411 121.203484 3.051007 0.121067 33.253723 53.174854 52.799862 -54.488461 11.657438 22.278681 53.620159 0.424601 -4.303521 14.709604 -1.963940 11.705267 -37.185665 -27.288683 -35.352810 90.156303 -3.027423 4.565442 -20.081491 1.517583 -5.230689 
-5.678601 41.576778 -5.678601 -0.175782 -0.136718 6.533623 27.512180 -3.058110 7.874493 3.050779 -1.010982 6.979562 43.790298 -7.604374 -10.753105 10.524219 0.508720 -0.030344 -3.799340 -17.257292 21.170343 -46.596584 -40.511227 70.844536 -120.565681 -3.051999 0.140948 -13.563929 -27.176655 7.833060 -2.145115 -5.790042 21.497721 64.821350 36.516193 38.936222 119.589867 3.070317 0.158041 44.012016 54.938671 54.408146 -51.394394 12.918592 21.696850 46.495045 -0.030322 -4.043672 22.786989 -3.186497 10.059563 -35.906963 -23.365229 -37.402603 84.500046 -2.636524 4.638153 -14.269106 -0.533442 -7.669946 
-7.433114 45.563301 -7.433114 -0.332036 -0.292964 4.103260 27.821960 -3.527206 7.385187 1.623505 -0.822755 6.714948 39.530346 -8.884624 -10.578086 10.524219 0.508720 -0.030344 -4.172586 -17.803347 16.679255 -49.452065 -36.494194 72.611908 -120.781296 -3.053337 0.133440 -17.562252 -29.037128 10.055722 -1.623369 -6.492843 17.212584 66.378098 33.754604 36.919937 117.102692 3.097722 0.229997 56.880219 56.521999 57.890415 -47.825390 14.965235 21.427208 40.272160 -0.393772 -3.802192 30.038557 -5.327690 8.376562 -34.128780 -19.408306 -39.220932 79.062332 -2.226569 4.646961 -9.879597 -2.364548 -9.660596 
-9.198744 49.488758 -9.198744 -0.566429 -0.517553 1.167226 28.152903 -3.971418 6.692063 0.030566 -0.621526 6.406851 34.712936 -10.228169 -10.190578 10.524219 0.508720 -0.030344 -4.620984 -18.277399 11.627419 -52.480457 -35.659824 69.564995 -117.835777 -3.081037 0.203459 -19.768301 -31.874895 7.545687 -1.080518 -7.221465 12.407580 68.026894 30.548288 34.877228 114.409431 3.122768 0.296026 70.063133 57.495106 62.378220 -43.552280 17.751528 21.341537 33.733196 -0.744441 -3.498762 37.604301 -8.350439 6.578395 -32.321331 -14.904922 -40.905548 73.137642 -1.796424 4.630306 -5.807721 -4.423709 -11.729145 
-10.953258 53.225441 -10.953258 -0.888770 -0.849507 -2.242683 28.501858 -4.367527 5.817541 -1.688959 -0.406500 6.101108 29.471321 -11.582788 -9.603209 10.524219 0.508720 -0.030344 -5.145150 -18.679636 6.164372 -54.805187 -35.081306 64.902359 -113.976028 -3.121284 0.299566 -20.594633 -34.696568 3.376556 -0.558369 -7.990206 7.219698 69.510124 26.681162 33.592487 112.173798 3.137343 0.355575 81.262238 57.838829 66.474403 -39.009953 20.796434 21.475168 27.657564 -1.046574 -3.164212 44.609692 -11.795792 4.936213 -30.477451 -10.076432 -42.405685 66.960289 -1.357260 4.567367 -2.082301 -6.522799 -13.810575 
-12.718886 56.601219 -12.718886 -1.260094 -1.308278 -6.152874 28.874115 -4.711226 4.807239 -3.495991 -0.195979 5.789371 23.925898 -12.856378 -8.802509 10.524219 0.508720 -0.030344 -5.720875 -18.953041 0.432346 -56.334053 -31.720638 62.237865 -111.389977 -3.141193 0.380010 -20.918562 -36.350094 0.872549 -0.075888 -8.746638 1.783320 70.618782 21.957085 33.940441 111.062592 3.148902 0.378903 88.213570 57.902157 68.826988 -34.732964 23.618109 21.844328 22.982765 -1.255189 -2.886502 50.102715 -15.118468 3.671724 -28.582470 -5.124964 -43.695221 60.773300 -0.927246 4.456369 1.270573 -8.546074 -15.843267 
-14.484572 59.488350 -14.484571 -1.690367 -1.883946 -10.510851 29.275652 -4.991478 3.687904 -5.341796 0.000055 5.517603 18.221277 -14.015915 -7.843385 10.524219 0.508720 -0.030344 -6.343262 -19.120438 -5.418620 -57.557186 -25.736538 61.925671 -110.241570 -3.149257 0.407920 -21.329832 -36.901264 0.497755 0.330293 -9.506837 -3.767886 71.370773 16.700705 35.500023 111.096008 3.148085 0.384371 91.844818 57.984413 69.841667 -31.285498 25.794191 22.269094 20.525160 -1.338947 -2.757154 53.202923 -17.715910 2.833980 -26.549162 -0.230573 -44.756836 54.800137 -0.517429 4.307374 4.265992 -10.352710 -17.733473 
-16.250156 61.725964 -16.250158 -2.140870 -2.595846 -15.274188 29.682957 -5.201840 2.497341 -7.177666 0.180552 5.296957 12.503838 -14.997559 -6.747659 10.524219 0.508720 -0.030344 -6.961639 -19.150951 -11.221210 -58.608322 -19.479225 61.644070 -109.159225 -3.156685 0.437372 -21.570013 -37.227737 0.278922 0.669888 -10.220304 -9.285293 71.886269 11.447813 37.147182 111.721931 3.142829 0.369352 94.463943 58.035782 70.652466 -29.293982 26.868814 22.480843 21.200991 -1.319566 -2.788196 53.003181 -19.000004 2.391396 -24.361370 4.387966 -45.599979 49.273651 -0.165971 4.130910 6.902055 -11.861983 -19.355700 
-18.015745 63.180702 -18.015745 -2.563147 -3.414557 -20.404150 30.103018 -5.337132 1.250324 -8.954851 0.353978 5.160759 6.911307 -15.767225 -5.583997 10.524219 0.508720 -0.030344 -7.566617 -19.047951 -16.844481 -59.473961 -13.180450 61.362755 -108.153008 -3.164582 0.457588 -21.668859 -37.356350 0.187854 0.923717 -10.863955 -14.651110 72.157761 6.373397 38.818890 112.740852 3.135580 0.346880 96.156975 58.066387 71.243004 -28.671423 27.078926 22.427059 24.440817 -1.187204 -2.975807 49.855839 -19.149019 2.100194 -21.932072 8.535574 -46.203014 44.437965 0.136830 3.945910 9.234608 -13.020289 -20.573643 
-19.781332 63.685844 -19.781332 -2.918382 -4.301076 -25.806948 30.531837 -5.374285 -0.005391 -10.644133 0.509879 5.128438 1.606625 -16.298120 -4.425497 10.524219 0.508720 -0.030344 -8.130551 -18.809772 -22.129868 -60.135452 -7.033104 61.067142 -107.229767 -3.167763 0.496933 -21.645554 -37.330700 0.202753 1.095505 -11.398879 -19.721350 72.195747 1.626346 40.473637 113.943336 3.127132 0.312150 96.984573 58.089817 71.613182 -28.795832 26.936855 22.186079 29.006706 -0.983119 -3.225458 44.899002 -18.796438 1.758478 -19.224337 12.012467 -46.568314 40.517693 0.367549 3.765752 11.300683 -13.742462 -21.213217 
-21.547060 63.697079 -21.547060 -3.187092 -5.226324 -31.408928 30.957907 -5.316550 -1.235179 -12.186975 0.637693 5.221109 -3.242746 -16.582798 -3.325403 10.524219 0.508720 -0.030344 -8.608852 -18.445547 -25.000000 -60.623878 -1.268852 60.800713 -106.404991 -3.173132 0.505859 -21.564650 -37.206078 0.306906 1.215992 -11.790332 -24.347576 71.991478 -2.618017 42.049332 115.118233 3.115309 0.280289 97.044365 58.111179 71.751465 -29.491951 26.513163 21.847860 34.612095 -0.695699 -3.536376 38.594624 -18.027426 1.416877 -16.215023 14.600585 -46.779442 37.746391 0.527432 3.651946 13.160751 -13.992640 -21.231466 
